<svg xmlns="http://www.w3.org/2000/svg" width="31" height="26" id="folder"><path fill-rule="evenodd" d="M29.952 4.115H17.624L15.976.797a.536.536 0 0 0-.48-.297H2.846a.535.535 0 0 0-.48.297L.559 4.42c-.02.039.002.078-.01.117-.01.043-.049.07-.049.117v19.877a.54.54 0 0 0 .539.537h28.914a.539.539 0 0 0 .537-.537V4.654a.542.542 0 0 0-.538-.539zM3.177 1.576h11.984l1.26 2.539H1.909l1.268-2.539zm26.236 22.416H1.575V5.191h15.648c.027.006.049.021.076.021.029 0 .059-.016.088-.021h12.025v18.801h.001z"></path></svg>