<svg xmlns="http://www.w3.org/2000/svg" width="200" height="200" fill-rule="evenodd" stroke-linejoin="round" stroke-miterlimit="2" clip-rule="evenodd" viewBox="0 0 48 48" id="human-resource"><g><path fill="#30a2ff" d="M34.342,27.01c0.021,-0.537 -0.071,-1.087 -0.286,-1.614c-0.001,-0.001 -0.001,-0.002 -0.001,-0.003c-0.4,-0.977 -1.173,-1.753 -2.149,-2.156c-0.976,-0.403 -2.072,-0.399 -3.044,0.012l-9.21,3.888c-0.281,0.119 -0.6,0.103 -0.867,-0.043c-0.003,-0.002 -0.006,-0.003 -0.01,-0.005c-2.497,-1.325 -5.307,-1.731 -7.816,-1.578c-0.237,-1.42 -1.472,-2.502 -2.959,-2.502l-4,0c-1.657,0 -3,1.343 -3,3l0,12c0,1.657 1.343,3 3,3l4,0c1.474,0 2.7,-1.063 2.952,-2.465c3.107,0.56 7.874,1.354 11.308,1.594c1.816,0.126 3.29,0.075 4.056,-0.18c2.483,-0.828 14.939,-9.263 19.396,-12.322c1.304,-0.879 1.67,-2.557 0.829,-3.971c-0.697,-1.17 -2.489,-1.718 -3.807,-1.03l-8.392,4.375Zm-25.342,-1.001l-0,12c-0,0.553 -0.448,1 -1,1c-0,0 -4,0 -4,0c-0.552,0 -1,-0.447 -1,-1c0,0 0,-12 0,-12c0,-0.552 0.448,-1 1,-1c0,0 4,0 4,0c0.552,0 1,0.448 1,1Zm2,10.512c3.036,0.551 7.916,1.379 11.399,1.622c1.469,0.102 2.664,0.124 3.285,-0.082c2.423,-0.808 14.547,-9.089 18.896,-12.074c0.002,-0.002 0.004,-0.003 0.007,-0.005c0.418,-0.282 0.538,-0.78 0.25,-1.268c-0.288,-0.488 -0.775,-0.516 -1.178,-0.306c-4.623,2.411 -18.197,9.488 -18.197,9.488c-0.489,0.255 -1.094,0.065 -1.349,-0.424c-0.255,-0.49 -0.065,-1.094 0.425,-1.349l4.286,-2.235c0.009,-0.006 0.019,-0.011 0.028,-0.016l2.5,-1.345c0.85,-0.457 1.217,-1.481 0.852,-2.374l-0.001,-0.003c-0.197,-0.482 -0.579,-0.866 -1.06,-1.065c-0.482,-0.199 -1.023,-0.196 -1.503,0.006l-9.211,3.889c-0.839,0.354 -1.792,0.308 -2.592,-0.125c-2.185,-1.158 -4.648,-1.491 -6.837,-1.343l-0,9.009Z"></path><circle cx="6" cy="36.259" r="1.25" fill="#30a2ff"></circle><path fill="#30a2ff" d="M30 21l0-1.021c0-2.75-2.229-4.979-4.979-4.979l-2.042 0c-2.75 0-4.979 2.229-4.979 4.979 0 .372 0 .721 0 1.021 0 1.105.895 2 2 2l8 0c1.105 0 2-.895 2-2zm-2 0l-8 0 0-1.021c0-1.645 1.334-2.979 2.979-2.979 0 0 2.042 0 2.042 0 1.645 0 2.979 1.334 2.979 2.979l0 1.021zM24 7c-2.208 0-4 1.792-4 4 0 2.208 1.792 4 4 4 2.208 0 4-1.792 4-4 0-2.208-1.792-4-4-4zm0 2c1.104 0 2 .896 2 2 0 1.104-.896 2-2 2-1.104 0-2-.896-2-2 0-1.104.896-2 2-2z"></path></g></svg>